<svg width="32" height="32" viewBox="0 0 32 32" fill="none" xmlns="http://www.w3.org/2000/svg">
<rect width="32" height="32" rx="5" fill="#1A1A40"/>
<path d="M17.7202 9.00624C17.8707 9.00624 17.9586 8.90607 17.9838 8.76785C18.3732 6.68392 18.3604 6.63357 20.5327 6.2066C20.6832 6.18142 20.7711 6.10589 20.7711 5.95535C20.7711 5.79196 20.6832 5.71696 20.5327 5.69178C18.3604 5.25249 18.3732 5.21499 17.9838 3.13053C17.9586 2.99232 17.8713 2.8916 17.7202 2.8916C17.5696 2.8916 17.4941 2.99232 17.4689 3.13053C17.0671 5.21446 17.0923 5.25196 14.9077 5.69124C14.7695 5.71696 14.6693 5.79196 14.6693 5.95535C14.6693 6.10589 14.7695 6.18142 14.9077 6.2066C17.1052 6.63357 17.0671 6.68339 17.4689 8.76785C17.4941 8.90607 17.5696 9.00624 17.7202 9.00624ZM23.7346 17.4946C23.9602 17.4946 24.1236 17.3312 24.1488 17.0929C24.5629 13.728 24.7263 13.6273 28.1291 13.1002C28.405 13.0498 28.5684 12.9245 28.5684 12.6732C28.5684 12.4348 28.405 12.2837 28.1789 12.2462C24.7514 11.5932 24.5629 11.6184 24.1488 8.25357C24.1236 8.01517 23.9602 7.85178 23.7346 7.85178C23.4957 7.85178 23.3329 8.01517 23.3077 8.24124C22.8684 11.6436 22.7548 11.7566 19.277 12.2462C19.0509 12.2714 18.888 12.4348 18.888 12.6732C18.888 12.9116 19.0509 13.0498 19.277 13.1002C22.7548 13.7404 22.8807 13.7532 23.3077 17.118C23.3173 17.2234 23.3669 17.3212 23.4463 17.3912C23.5257 17.4612 23.6289 17.4982 23.7346 17.4946ZM14.2798 29.1089C18.8248 29.1089 22.4538 26.8107 24.1863 22.9439C24.4 22.4795 24.362 22.0777 24.1364 21.8639C23.9355 21.6759 23.5836 21.6507 23.1946 21.7889C22.1775 22.1907 20.9846 22.3916 19.6161 22.3916C13.9161 22.3916 10.2748 18.8254 10.2748 13.263C10.2748 11.6811 10.5759 10.1623 10.9654 9.38392C11.1786 8.94464 11.1786 8.56749 10.99 8.32857C10.7645 8.07785 10.3627 8.04035 9.87304 8.22839C6.01804 9.74714 3.43161 13.8411 3.43161 18.4359C3.43161 24.5505 7.93911 29.1089 14.2798 29.1089Z" fill="#EDEDF9"/>
</svg>
